<svg width="106" height="106" viewBox="0 0 106 106" fill="none" xmlns="http://www.w3.org/2000/svg">
<g opacity="0.75" clip-path="url(#clip0_25_44)">
<path d="M56.5103 57.952C59.4644 55.726 60.0545 51.5268 57.8285 48.5728C55.6025 45.6188 51.4033 45.0286 48.4493 47.2546C45.4953 49.4806 44.9051 53.6799 47.1311 56.6339C49.3571 59.5879 53.5563 60.178 56.5103 57.952Z" fill="#7CEBFF" fill-opacity="0.3"/>
<path fill-rule="evenodd" clip-rule="evenodd" d="M44.285 41.7282C51.4663 36.3167 58.9141 32.32 65.2492 30.2612C72.8821 27.7807 78.9916 28.1354 81.1496 30.9991C83.3983 33.9834 81.981 40.3191 77.0977 47.3798C73.4057 52.7178 67.5721 58.448 60.7552 63.5849C53.7659 68.8517 46.5456 73.0402 40.2884 75.0894C32.3716 77.6816 26.0153 77.1355 23.8093 74.2081C21.6688 71.3676 22.8619 65.5484 27.2674 58.9623C30.9898 53.3974 37.0325 47.1934 44.284 41.729L44.285 41.7282Z" stroke="#7CEBFF" stroke-opacity="0.3" stroke-width="2.73408"/>
<path fill-rule="evenodd" clip-rule="evenodd" d="M38.9391 54.331C37.8389 45.4066 38.0972 36.9582 39.4786 30.4418C41.143 22.5905 44.5025 17.4752 48.0611 17.0364C51.7698 16.5791 56.5503 20.9722 60.227 28.7297C63.0079 34.5939 65.0563 42.5106 66.1007 50.9823C67.1715 59.6681 67.193 68.0152 65.8419 74.4581C64.1325 82.6111 60.4839 87.8448 56.846 88.2933C53.3167 88.7296 48.8711 84.788 45.3666 77.6812C42.4055 71.6766 40.0499 63.3427 38.9378 54.3318L38.9391 54.331Z" stroke="#7CEBFF" stroke-opacity="0.3" stroke-width="2.73408"/>
<path fill-rule="evenodd" clip-rule="evenodd" d="M47.1879 65.259C38.9076 61.7562 31.7174 57.3111 26.7608 52.8607C20.7898 47.4978 18.0358 42.0325 19.4331 38.7302C20.8891 35.2888 27.0825 33.3411 35.6395 34.03C42.1092 34.5507 49.9906 36.7284 57.8519 40.0544C65.9118 43.4644 73.1541 47.6147 78.0614 52.0027C84.2713 57.5556 86.9834 63.3301 85.555 66.7059C84.1691 69.9815 78.5352 71.8647 70.6279 71.3515C63.9471 70.9181 55.5503 68.7967 47.1878 65.2589L47.1879 65.259Z" stroke="#7CEBFF" stroke-opacity="0.3" stroke-width="2.73408"/>
</g>
<defs>
<clipPath id="clip0_25_44">
<rect width="75" height="75" fill="white" transform="translate(0 45.2722) rotate(-37)"/>
</clipPath>
</defs>
</svg>
